<?xml version="1.0" standalone="no"?>
<!DOCTYPE svg PUBLIC "-//W3C//DTD SVG 20010904//EN"
 "http://www.w3.org/TR/2001/REC-SVG-20010904/DTD/svg10.dtd">
<svg version="1.0" xmlns="http://www.w3.org/2000/svg"
 width="1001.000000pt" height="1001.000000pt" viewBox="0 0 1001.000000 1001.000000"
 preserveAspectRatio="xMidYMid meet">
<metadata>
Created by potrace 1.14, written by Peter Selinger 2001-2017
</metadata>
<g transform="translate(0.000000,1001.000000) scale(0.100000,-0.100000)"
fill="#000000" stroke="none">
<path d="M4957 10004 c-1 -1 -76 -5 -167 -8 -91 -4 -178 -9 -195 -11 -16 -2
-61 -6 -100 -10 -99 -9 -177 -18 -246 -30 -13 -2 -40 -6 -59 -9 -726 -115
-1471 -423 -2090 -865 -114 -82 -171 -125 -210 -158 -14 -11 -59 -49 -100 -83
-273 -225 -621 -596 -817 -870 -47 -67 -216 -319 -244 -365 -40 -66 -42 -70
-103 -182 -32 -59 -69 -126 -81 -148 -114 -208 -285 -652 -361 -935 -25 -92
-29 -106 -39 -151 -2 -11 -6 -28 -9 -37 -3 -9 -8 -32 -11 -51 -3 -19 -8 -37
-10 -41 -2 -4 -6 -20 -9 -36 -30 -172 -55 -327 -60 -364 -20 -174 -24 -217
-32 -365 -12 -208 -6 -647 10 -730 2 -11 7 -56 10 -100 4 -44 9 -87 11 -95 2
-8 6 -37 10 -64 3 -27 13 -87 21 -135 8 -47 17 -99 20 -116 10 -60 76 -338 89
-376 8 -22 14 -42 14 -44 -1 -10 42 -148 78 -255 162 -474 419 -960 717 -1355
171 -227 255 -324 476 -546 466 -469 999 -830 1585 -1074 77 -32 154 -64 170
-71 99 -42 470 -155 619 -189 58 -13 215 -46 241 -51 136 -25 161 -29 320 -49
198 -25 293 -30 605 -29 265 0 394 5 507 19 15 2 57 7 93 10 36 3 72 8 80 10
8 3 35 7 60 10 148 18 462 84 595 125 17 5 77 24 135 41 562 167 1152 477
1629 857 136 108 124 98 272 232 356 323 664 702 928 1139 64 106 215 396 264
507 48 110 61 139 63 149 1 6 10 28 19 50 74 172 195 560 229 737 2 13 13 66
25 118 11 52 23 115 26 140 4 24 8 47 10 50 2 4 7 38 10 76 4 38 8 71 10 74 2
3 6 41 10 85 4 44 8 82 10 85 9 15 19 267 18 485 0 222 -6 388 -19 480 -2 17
-6 59 -10 93 -3 35 -7 73 -10 85 -2 12 -7 40 -9 62 -11 84 -17 121 -26 163 -5
23 -12 59 -15 80 -18 116 -103 440 -163 617 -55 164 -66 194 -74 201 -4 4 -7
14 -7 22 0 8 -7 28 -14 45 -8 18 -40 90 -71 161 -297 687 -799 1353 -1379
1830 -61 50 -113 93 -116 96 -26 28 -407 292 -485 336 -11 6 -65 37 -120 69
-113 65 -352 186 -465 235 -41 18 -88 38 -105 46 -204 91 -674 234 -900 274
-27 5 -63 12 -80 15 -88 17 -196 35 -244 40 -30 4 -61 8 -70 10 -9 1 -52 6
-96 10 -44 4 -91 8 -105 11 -14 2 -101 6 -195 10 -242 9 -266 9 -268 8z"/>
</g>
</svg>
